G04*
G04 #@! TF.GenerationSoftware,Altium Limited,Altium Designer,20.0.14 (345)*
G04*
G04 Layer_Color=16711935*
%FSLAX25Y25*%
%MOIN*%
G70*
G01*
G75*
%ADD16R,0.02800X0.03200*%
G04:AMPARAMS|DCode=18|XSize=51.31mil|YSize=110.36mil|CornerRadius=14.83mil|HoleSize=0mil|Usage=FLASHONLY|Rotation=0.000|XOffset=0mil|YOffset=0mil|HoleType=Round|Shape=RoundedRectangle|*
%AMROUNDEDRECTD18*
21,1,0.05131,0.08071,0,0,0.0*
21,1,0.02165,0.11036,0,0,0.0*
1,1,0.02965,0.01083,-0.04035*
1,1,0.02965,-0.01083,-0.04035*
1,1,0.02965,-0.01083,0.04035*
1,1,0.02965,0.01083,0.04035*
%
%ADD18ROUNDEDRECTD18*%
%ADD19C,0.00800*%
%ADD20C,0.10800*%
%ADD35R,0.05918X0.06509*%
%ADD36R,0.03300X0.02769*%
%ADD37R,0.02769X0.03300*%
%ADD38R,0.11430X0.11430*%
G04:AMPARAMS|DCode=39|XSize=21.78mil|YSize=39.5mil|CornerRadius=10.89mil|HoleSize=0mil|Usage=FLASHONLY|Rotation=90.000|XOffset=0mil|YOffset=0mil|HoleType=Round|Shape=RoundedRectangle|*
%AMROUNDEDRECTD39*
21,1,0.02178,0.01772,0,0,90.0*
21,1,0.00000,0.03950,0,0,90.0*
1,1,0.02178,0.00886,0.00000*
1,1,0.02178,0.00886,0.00000*
1,1,0.02178,-0.00886,0.00000*
1,1,0.02178,-0.00886,0.00000*
%
%ADD39ROUNDEDRECTD39*%
G04:AMPARAMS|DCode=40|XSize=21.78mil|YSize=39.5mil|CornerRadius=10.89mil|HoleSize=0mil|Usage=FLASHONLY|Rotation=0.000|XOffset=0mil|YOffset=0mil|HoleType=Round|Shape=RoundedRectangle|*
%AMROUNDEDRECTD40*
21,1,0.02178,0.01772,0,0,0.0*
21,1,0.00000,0.03950,0,0,0.0*
1,1,0.02178,0.00000,-0.00886*
1,1,0.02178,0.00000,-0.00886*
1,1,0.02178,0.00000,0.00886*
1,1,0.02178,0.00000,0.00886*
%
%ADD40ROUNDEDRECTD40*%
%ADD41R,0.05761X0.05918*%
%ADD42R,0.02965X0.04737*%
G04:AMPARAMS|DCode=43|XSize=19.81mil|YSize=37.92mil|CornerRadius=5.18mil|HoleSize=0mil|Usage=FLASHONLY|Rotation=0.000|XOffset=0mil|YOffset=0mil|HoleType=Round|Shape=RoundedRectangle|*
%AMROUNDEDRECTD43*
21,1,0.01981,0.02756,0,0,0.0*
21,1,0.00945,0.03792,0,0,0.0*
1,1,0.01036,0.00472,-0.01378*
1,1,0.01036,-0.00472,-0.01378*
1,1,0.01036,-0.00472,0.01378*
1,1,0.01036,0.00472,0.01378*
%
%ADD43ROUNDEDRECTD43*%
G04:AMPARAMS|DCode=44|XSize=47.37mil|YSize=35.56mil|CornerRadius=6.76mil|HoleSize=0mil|Usage=FLASHONLY|Rotation=0.000|XOffset=0mil|YOffset=0mil|HoleType=Round|Shape=RoundedRectangle|*
%AMROUNDEDRECTD44*
21,1,0.04737,0.02205,0,0,0.0*
21,1,0.03386,0.03556,0,0,0.0*
1,1,0.01351,0.01693,-0.01102*
1,1,0.01351,-0.01693,-0.01102*
1,1,0.01351,-0.01693,0.01102*
1,1,0.01351,0.01693,0.01102*
%
%ADD44ROUNDEDRECTD44*%
G04:AMPARAMS|DCode=45|XSize=19.81mil|YSize=35.56mil|CornerRadius=6.95mil|HoleSize=0mil|Usage=FLASHONLY|Rotation=0.000|XOffset=0mil|YOffset=0mil|HoleType=Round|Shape=RoundedRectangle|*
%AMROUNDEDRECTD45*
21,1,0.01981,0.02165,0,0,0.0*
21,1,0.00591,0.03556,0,0,0.0*
1,1,0.01391,0.00295,-0.01083*
1,1,0.01391,-0.00295,-0.01083*
1,1,0.01391,-0.00295,0.01083*
1,1,0.01391,0.00295,0.01083*
%
%ADD45ROUNDEDRECTD45*%
D16*
X28200Y-10000D02*
D03*
X23800D02*
D03*
X28200Y-13000D02*
D03*
X23800D02*
D03*
X28200Y-7000D02*
D03*
X23800D02*
D03*
Y15000D02*
D03*
X28200D02*
D03*
X23800Y12000D02*
D03*
X28200D02*
D03*
X23800Y18000D02*
D03*
X28200D02*
D03*
Y27100D02*
D03*
X23800D02*
D03*
X28200Y24100D02*
D03*
X23800D02*
D03*
X-22200Y-19680D02*
D03*
X-17800D02*
D03*
D18*
X17008Y17126D02*
D03*
X-17008Y38228D02*
D03*
Y17126D02*
D03*
X17008Y38228D02*
D03*
D19*
X0Y0D02*
D03*
D20*
X-10000Y-20000D02*
D03*
X15000Y-10000D02*
D03*
D35*
X26641Y0D02*
D03*
X20342D02*
D03*
D36*
X-24200Y15172D02*
D03*
Y11628D02*
D03*
D37*
X-12772Y6000D02*
D03*
X-9228D02*
D03*
D38*
X-20000Y-5000D02*
D03*
D39*
X-12126Y-1161D02*
D03*
Y-3720D02*
D03*
Y-8839D02*
D03*
Y-6279D02*
D03*
X-27874Y-8839D02*
D03*
Y-6279D02*
D03*
Y-1161D02*
D03*
Y-3720D02*
D03*
D40*
X-16161Y-12874D02*
D03*
X-18721D02*
D03*
X-23839D02*
D03*
X-21280D02*
D03*
X-23839Y2874D02*
D03*
X-21280D02*
D03*
X-16161D02*
D03*
X-18721D02*
D03*
D41*
X32526Y-31521D02*
D03*
X-1726D02*
D03*
D42*
X11463Y-20300D02*
D03*
X23274D02*
D03*
X15400D02*
D03*
X19337D02*
D03*
X7526D02*
D03*
D43*
X-11811Y15630D02*
D03*
X-9843D02*
D03*
X-7874D02*
D03*
X-5906D02*
D03*
X-1969D02*
D03*
X1969D02*
D03*
X3937D02*
D03*
X5906D02*
D03*
X7874D02*
D03*
X-3937D02*
D03*
X9843D02*
D03*
X11811D02*
D03*
D44*
X12205Y19567D02*
D03*
X-12205D02*
D03*
D45*
X8858D02*
D03*
X6890D02*
D03*
X4921D02*
D03*
X2953D02*
D03*
X984D02*
D03*
X-984D02*
D03*
X-2953D02*
D03*
X-4921D02*
D03*
X-6890D02*
D03*
X-8858D02*
D03*
M02*
