G04*
G04 #@! TF.GenerationSoftware,Altium Limited,Altium Designer,20.0.14 (345)*
G04*
G04 Layer_Color=32896*
%FSLAX25Y25*%
%MOIN*%
G70*
G01*
G75*
%ADD10C,0.00600*%
%ADD12C,0.00787*%
%ADD13C,0.00800*%
%ADD46C,0.01000*%
D10*
X-28500Y3500D02*
X-26000D01*
X-28500Y653D02*
Y3500D01*
Y-13347D02*
Y-10500D01*
X-11500Y-13500D02*
Y-10653D01*
X-14000Y-13500D02*
X-11500D01*
X-28500D02*
X-26000D01*
X-11500Y653D02*
Y3500D01*
X-14000D02*
X-11500D01*
X24000Y-8000D02*
X28000D01*
X24000Y-12000D02*
X28000D01*
X24000Y-11000D02*
X28000D01*
X24000Y-15000D02*
X28000D01*
X24000Y-5000D02*
X28000D01*
X24000Y-9000D02*
X28000D01*
X20991Y-4000D02*
X25991D01*
X20991Y4000D02*
X25991D01*
X24000Y13000D02*
X28000D01*
X24000Y17000D02*
X28000D01*
X24000Y10000D02*
X28000D01*
X24000Y14000D02*
X28000D01*
X24000Y16000D02*
X28000D01*
X24000Y20000D02*
X28000D01*
X24000Y29100D02*
X28000D01*
X24000Y25100D02*
X28000D01*
X24000Y26100D02*
X28000D01*
X24000Y22100D02*
X28000D01*
X-22200Y12400D02*
Y14400D01*
X-26200Y12400D02*
Y14400D01*
X-12000Y8000D02*
X-10000D01*
X-12000Y4000D02*
X-10000D01*
X-22000Y-21680D02*
X-18000D01*
X-22000Y-17680D02*
X-18000D01*
X-10099Y-31401D02*
X-9100D01*
X-8600Y-31901D01*
Y-33900D01*
X-9100Y-34400D01*
X-10099D01*
X-10599Y-33900D01*
Y-31901D01*
X-10099Y-31401D01*
X-11599Y-34400D02*
Y-32401D01*
X-13099D01*
X-13598Y-32901D01*
Y-34400D01*
X-16098D02*
X-15098D01*
X-14598Y-33900D01*
Y-32901D01*
X-15098Y-32401D01*
X-16098D01*
X-16597Y-32901D01*
Y-33401D01*
X-14598D01*
X-17597Y-31401D02*
Y-34400D01*
Y-33401D01*
X-19596Y-31401D01*
X-18097Y-32901D01*
X-19596Y-34400D01*
X-22096D02*
X-21096D01*
X-20596Y-33900D01*
Y-32901D01*
X-21096Y-32401D01*
X-22096D01*
X-22595Y-32901D01*
Y-33401D01*
X-20596D01*
X-23595Y-32401D02*
Y-33900D01*
X-24095Y-34400D01*
X-25594D01*
Y-34900D01*
X-25095Y-35400D01*
X-24595D01*
X-25594Y-34400D02*
Y-32401D01*
X-26594Y-34900D02*
X-28594D01*
X-29593Y-31401D02*
Y-33401D01*
X-30593Y-34400D01*
X-31593Y-33401D01*
Y-31401D01*
X-32592Y-34400D02*
X-33592D01*
X-33092D01*
Y-31401D01*
X-32592Y-31901D01*
D12*
X-4088Y-38804D02*
Y-35261D01*
Y-27977D02*
Y-17741D01*
X34888D01*
Y-38804D02*
Y-35261D01*
Y-27977D02*
Y-17741D01*
D13*
X-4501Y-10001D02*
Y-12500D01*
X-5001Y-13000D01*
X-6000D01*
X-6500Y-12500D01*
Y-10001D01*
X-7500Y-13000D02*
X-8499D01*
X-7999D01*
Y-10001D01*
X-7500Y-10500D01*
X35499Y7501D02*
Y10499D01*
X34000D01*
X33500Y10000D01*
Y9000D01*
X34000Y8500D01*
X35499D01*
X34499D02*
X33500Y7501D01*
X32500Y8000D02*
X32000Y7501D01*
X31001D01*
X30501Y8000D01*
Y10000D01*
X31001Y10499D01*
X32000D01*
X32500Y10000D01*
Y9500D01*
X32000Y9000D01*
X30501D01*
X35499Y-16000D02*
Y-13001D01*
X34000D01*
X33500Y-13500D01*
Y-14500D01*
X34000Y-15000D01*
X35499D01*
X34499D02*
X33500Y-16000D01*
X32500Y-13500D02*
X32000Y-13001D01*
X31001D01*
X30501Y-13500D01*
Y-14000D01*
X31001Y-14500D01*
X30501Y-15000D01*
Y-15500D01*
X31001Y-16000D01*
X32000D01*
X32500Y-15500D01*
Y-15000D01*
X32000Y-14500D01*
X32500Y-14000D01*
Y-13500D01*
X32000Y-14500D02*
X31001D01*
X35499Y12000D02*
Y14999D01*
X34000D01*
X33500Y14500D01*
Y13500D01*
X34000Y13000D01*
X35499D01*
X34499D02*
X33500Y12000D01*
X32500Y14999D02*
X30501D01*
Y14500D01*
X32500Y12500D01*
Y12000D01*
X35499Y-11000D02*
Y-8000D01*
X34000D01*
X33500Y-8500D01*
Y-9500D01*
X34000Y-10000D01*
X35499D01*
X34499D02*
X33500Y-11000D01*
X30501Y-8000D02*
X31501Y-8500D01*
X32500Y-9500D01*
Y-10500D01*
X32000Y-11000D01*
X31001D01*
X30501Y-10500D01*
Y-10000D01*
X31001Y-9500D01*
X32500D01*
X35499Y16500D02*
Y19500D01*
X34000D01*
X33500Y19000D01*
Y18000D01*
X34000Y17500D01*
X35499D01*
X34499D02*
X33500Y16500D01*
X30501Y19500D02*
X32500D01*
Y18000D01*
X31501Y18500D01*
X31001D01*
X30501Y18000D01*
Y17000D01*
X31001Y16500D01*
X32000D01*
X32500Y17000D01*
X35499Y-5999D02*
Y-3001D01*
X34000D01*
X33500Y-3500D01*
Y-4500D01*
X34000Y-5000D01*
X35499D01*
X34499D02*
X33500Y-5999D01*
X31001D02*
Y-3001D01*
X32500Y-4500D01*
X30501D01*
X-24501Y-21499D02*
Y-18500D01*
X-26000D01*
X-26500Y-19000D01*
Y-20000D01*
X-26000Y-20500D01*
X-24501D01*
X-25501D02*
X-26500Y-21499D01*
X-27500Y-19000D02*
X-28000Y-18500D01*
X-28999D01*
X-29499Y-19000D01*
Y-19500D01*
X-28999Y-20000D01*
X-28499D01*
X-28999D01*
X-29499Y-20500D01*
Y-21000D01*
X-28999Y-21499D01*
X-28000D01*
X-27500Y-21000D01*
X35499Y26601D02*
Y29599D01*
X34000D01*
X33500Y29100D01*
Y28100D01*
X34000Y27600D01*
X35499D01*
X34499D02*
X33500Y26601D01*
X30501D02*
X32500D01*
X30501Y28600D01*
Y29100D01*
X31001Y29599D01*
X32000D01*
X32500Y29100D01*
X35499Y22100D02*
Y25100D01*
X34000D01*
X33500Y24600D01*
Y23600D01*
X34000Y23100D01*
X35499D01*
X34500D02*
X33500Y22100D01*
X32500D02*
X31501D01*
X32000D01*
Y25100D01*
X32500Y24600D01*
X23500Y43999D02*
X24500D01*
X24000D01*
Y41500D01*
X24500Y41001D01*
X24999D01*
X25499Y41500D01*
X22500Y41001D02*
X21501D01*
X22001D01*
Y43999D01*
X22500Y43500D01*
X1499Y-13500D02*
Y-16499D01*
Y-15000D01*
X-500D01*
Y-13500D01*
Y-16499D01*
X-1500D02*
X-2499D01*
X-2000D01*
Y-13500D01*
X-1500Y-14000D01*
X-29500Y14500D02*
X-29000Y14999D01*
X-28001D01*
X-27501Y14500D01*
Y12500D01*
X-28001Y12000D01*
X-29000D01*
X-29500Y12500D01*
X-30500Y14500D02*
X-31000Y14999D01*
X-31999D01*
X-32499Y14500D01*
Y14000D01*
X-31999Y13500D01*
X-31499D01*
X-31999D01*
X-32499Y13000D01*
Y12500D01*
X-31999Y12000D01*
X-31000D01*
X-30500Y12500D01*
X14500Y1000D02*
X15000Y1500D01*
X15999D01*
X16499Y1000D01*
Y-1000D01*
X15999Y-1500D01*
X15000D01*
X14500Y-1000D01*
X11501Y-1500D02*
X13500D01*
X11501Y500D01*
Y1000D01*
X12001Y1500D01*
X13000D01*
X13500Y1000D01*
X-10325Y11325D02*
X-9825Y11824D01*
X-8826D01*
X-8326Y11325D01*
Y9325D01*
X-8826Y8826D01*
X-9825D01*
X-10325Y9325D01*
X-11325Y8826D02*
X-12324D01*
X-11824D01*
Y11824D01*
X-11325Y11325D01*
D46*
X-17717Y23622D02*
Y31890D01*
Y44094D02*
Y46850D01*
X17717D01*
Y44094D02*
Y46850D01*
Y23622D02*
Y31890D01*
M02*
