G04*
G04 #@! TF.GenerationSoftware,Altium Limited,Altium Designer,20.0.14 (345)*
G04*
G04 Layer_Physical_Order=1*
G04 Layer_Color=255*
%FSLAX25Y25*%
%MOIN*%
G70*
G01*
G75*
%ADD10C,0.00600*%
%ADD14R,0.02000X0.02400*%
%ADD15R,0.03150X0.02953*%
G04:AMPARAMS|DCode=21|XSize=43.31mil|YSize=102.36mil|CornerRadius=10.83mil|HoleSize=0mil|Usage=FLASHONLY|Rotation=0.000|XOffset=0mil|YOffset=0mil|HoleType=Round|Shape=RoundedRectangle|*
%AMROUNDEDRECTD21*
21,1,0.04331,0.08071,0,0,0.0*
21,1,0.02165,0.10236,0,0,0.0*
1,1,0.02165,0.01083,-0.04035*
1,1,0.02165,-0.01083,-0.04035*
1,1,0.02165,-0.01083,0.04035*
1,1,0.02165,0.01083,0.04035*
%
%ADD21ROUNDEDRECTD21*%
%ADD22C,0.10000*%
%ADD23C,0.02400*%
G36*
X38350Y-38350D02*
X-38350D01*
Y46224D01*
X38350D01*
Y-38350D01*
D02*
G37*
%LPC*%
G36*
X18258Y43946D02*
Y39478D01*
X19806D01*
Y42264D01*
X19676Y42920D01*
X19304Y43477D01*
X18747Y43849D01*
X18258Y43946D01*
D02*
G37*
G36*
X15758D02*
X15269Y43849D01*
X14712Y43477D01*
X14340Y42920D01*
X14209Y42264D01*
Y39478D01*
X15758D01*
Y43946D01*
D02*
G37*
G36*
X-15758D02*
Y39478D01*
X-14209D01*
Y42264D01*
X-14340Y42920D01*
X-14712Y43477D01*
X-15269Y43849D01*
X-15758Y43946D01*
D02*
G37*
G36*
X-18258D02*
X-18747Y43849D01*
X-19304Y43477D01*
X-19676Y42920D01*
X-19806Y42264D01*
Y39478D01*
X-18258D01*
Y43946D01*
D02*
G37*
G36*
X32324Y40076D02*
X27975D01*
Y37473D01*
X26602Y36100D01*
X26025D01*
Y40076D01*
X21676D01*
Y37221D01*
X20657Y36203D01*
X20458Y35905D01*
X20306Y35868D01*
X19806Y36259D01*
Y36978D01*
X14209D01*
Y35356D01*
X13710Y35204D01*
X13647Y35298D01*
X13051Y35696D01*
X12349Y35835D01*
X11647Y35696D01*
X11051Y35298D01*
X10664Y34718D01*
X8700D01*
X8349Y34648D01*
X8051Y34449D01*
X7620Y34018D01*
X-7849D01*
X-8200Y33948D01*
X-8498Y33749D01*
X-9119Y33128D01*
X-14058D01*
X-14322Y33628D01*
X-14209Y34193D01*
Y36978D01*
X-19806D01*
Y34193D01*
X-19676Y33536D01*
X-19536Y33328D01*
X-19359Y32908D01*
X-19602Y32595D01*
X-20080Y32118D01*
X-22613D01*
X-22867Y32498D01*
X-23463Y32896D01*
X-24165Y33035D01*
X-24314Y33006D01*
X-24700Y33323D01*
Y35853D01*
X-24629Y35924D01*
X-21676D01*
Y40076D01*
X-26025D01*
Y37123D01*
X-26949Y36199D01*
X-27015Y36100D01*
X-27900Y36100D01*
X-27975Y36569D01*
Y40076D01*
X-32324D01*
Y38918D01*
X-32500D01*
X-32851Y38848D01*
X-33149Y38649D01*
X-33849Y37949D01*
X-34048Y37651D01*
X-34118Y37300D01*
Y26183D01*
X-34048Y25832D01*
X-33849Y25534D01*
X-33423Y25108D01*
X-33512Y24660D01*
X-33373Y23958D01*
X-32975Y23362D01*
X-32379Y22964D01*
X-31677Y22825D01*
X-31527Y22855D01*
X-31281Y22394D01*
X-34249Y19426D01*
X-34448Y19128D01*
X-34518Y18777D01*
Y2264D01*
X-34448Y1913D01*
X-34249Y1616D01*
X-34218Y1584D01*
Y-13D01*
X-34549Y-234D01*
X-34947Y-830D01*
X-35086Y-1532D01*
X-34947Y-2234D01*
X-34549Y-2830D01*
X-34142Y-3101D01*
X-34111Y-3613D01*
X-34417Y-3919D01*
X-34616Y-4217D01*
X-34686Y-4568D01*
Y-7600D01*
X-34616Y-7951D01*
X-34417Y-8249D01*
X-33886Y-8780D01*
Y-20870D01*
X-33816Y-21221D01*
X-33617Y-21519D01*
X-21473Y-33664D01*
X-21376Y-33728D01*
X-21311Y-33825D01*
X-21013Y-34024D01*
X-20662Y-34094D01*
X-5086D01*
X-4735Y-34024D01*
X-4437Y-33825D01*
X-3406Y-32794D01*
X7376D01*
X7727Y-32724D01*
X8024Y-32525D01*
X8973Y-31576D01*
X12025D01*
Y-27718D01*
X13975D01*
Y-31576D01*
X18324D01*
Y-30754D01*
X18824Y-30632D01*
X19002Y-30898D01*
X19598Y-31296D01*
X20300Y-31435D01*
X21002Y-31296D01*
X21598Y-30898D01*
X21996Y-30302D01*
X22135Y-29600D01*
X21996Y-28898D01*
X21598Y-28302D01*
X21471Y-28218D01*
X21623Y-27718D01*
X25600D01*
X25951Y-27648D01*
X26249Y-27449D01*
X31623Y-22075D01*
X31822Y-21777D01*
X31892Y-21426D01*
Y-8647D01*
X32272Y-8393D01*
X32670Y-7798D01*
X32809Y-7096D01*
X32670Y-6393D01*
X32272Y-5798D01*
X31676Y-5400D01*
X30974Y-5260D01*
X30272Y-5400D01*
X29676Y-5798D01*
X29278Y-6393D01*
X29139Y-7096D01*
X29278Y-7798D01*
X29676Y-8393D01*
X30056Y-8647D01*
Y-21046D01*
X25220Y-25882D01*
X-7052D01*
X-7403Y-25952D01*
X-7701Y-26151D01*
X-8973Y-27424D01*
X-12025D01*
Y-30959D01*
X-13975D01*
Y-27424D01*
X-18324D01*
Y-28582D01*
X-19889D01*
X-28533Y-19938D01*
Y-13898D01*
X-28033Y-13746D01*
X-27882Y-13973D01*
X-27502Y-14227D01*
Y-18116D01*
X-27432Y-18467D01*
X-27233Y-18765D01*
X-25649Y-20349D01*
X-25351Y-20548D01*
X-25000Y-20618D01*
X-15567D01*
X-15456Y-21462D01*
X-14892Y-22824D01*
X-13994Y-23994D01*
X-12824Y-24892D01*
X-11462Y-25456D01*
X-10000Y-25648D01*
X-8538Y-25456D01*
X-7176Y-24892D01*
X-6006Y-23994D01*
X-5108Y-22824D01*
X-4544Y-21462D01*
X-4352Y-20000D01*
X-4544Y-18538D01*
X-5108Y-17176D01*
X-6006Y-16006D01*
X-7176Y-15108D01*
X-8538Y-14544D01*
X-10000Y-14352D01*
X-11462Y-14544D01*
X-12824Y-15108D01*
X-13994Y-16006D01*
X-14892Y-17176D01*
X-15456Y-18538D01*
X-15488Y-18782D01*
X-24620D01*
X-25667Y-17736D01*
Y-14227D01*
X-25287Y-13973D01*
X-24889Y-13377D01*
X-24749Y-12675D01*
X-24889Y-11973D01*
X-25287Y-11377D01*
X-25882Y-10979D01*
X-26584Y-10840D01*
X-27287Y-10979D01*
X-27420Y-11069D01*
X-28082Y-10909D01*
X-28253Y-10653D01*
X-28533Y-10466D01*
Y-169D01*
X-28033Y38D01*
X-20997Y-6998D01*
Y-14894D01*
X-21377Y-15148D01*
X-21775Y-15743D01*
X-21915Y-16445D01*
X-21775Y-17148D01*
X-21377Y-17743D01*
X-20782Y-18141D01*
X-20079Y-18281D01*
X-19377Y-18141D01*
X-18782Y-17743D01*
X-18384Y-17148D01*
X-18359Y-17138D01*
X-17840Y-17485D01*
X-17138Y-17624D01*
X-16435Y-17485D01*
X-15840Y-17087D01*
X-15442Y-16491D01*
X-15302Y-15789D01*
X-15442Y-15087D01*
X-15840Y-14491D01*
X-16220Y-14237D01*
Y-7863D01*
X-16290Y-7511D01*
X-16489Y-7214D01*
X-26463Y2761D01*
X-26268Y3273D01*
X-25768Y3373D01*
X-25172Y3770D01*
X-24959Y4090D01*
X-24024D01*
X-3345Y-16589D01*
X-3048Y-16788D01*
X-2697Y-16858D01*
X4341D01*
X4702Y-17398D01*
X5298Y-17796D01*
X6000Y-17935D01*
X6702Y-17796D01*
X7298Y-17398D01*
X7696Y-16802D01*
X7835Y-16100D01*
X8279Y-15769D01*
X8492Y-15812D01*
X9194Y-15672D01*
X9789Y-15274D01*
X10187Y-14679D01*
X10327Y-13976D01*
X10315Y-13914D01*
X10782Y-13702D01*
X11006Y-13994D01*
X12176Y-14892D01*
X13538Y-15456D01*
X13750Y-15484D01*
Y-11250D01*
X9516D01*
X9544Y-11462D01*
X9803Y-12086D01*
X9399Y-12418D01*
X9194Y-12281D01*
X8492Y-12141D01*
X7789Y-12281D01*
X7194Y-12679D01*
X6940Y-13059D01*
X-2442D01*
X-22076Y6576D01*
X-21971Y7108D01*
X-22110Y7810D01*
X-22508Y8405D01*
X-23104Y8803D01*
X-23806Y8943D01*
X-24508Y8803D01*
X-25104Y8405D01*
X-25501Y7810D01*
X-25622Y7206D01*
X-25657Y7098D01*
X-26096Y6829D01*
X-26470Y6903D01*
X-27152Y6768D01*
X-27241Y6759D01*
X-27652Y7022D01*
Y12420D01*
X-26251Y13821D01*
X-26052Y14119D01*
X-25982Y14470D01*
Y18392D01*
X-24613Y19761D01*
X-24165Y19671D01*
X-23463Y19811D01*
X-22867Y20209D01*
X-22469Y20804D01*
X-22330Y21507D01*
X-22469Y22209D01*
X-22867Y22804D01*
X-22984Y22882D01*
X-22832Y23382D01*
X-13855D01*
X-13504Y23452D01*
X-13206Y23651D01*
X-12075Y24782D01*
X-6442D01*
X-6254Y24282D01*
X-6566Y23814D01*
X-6706Y23112D01*
X-6566Y22410D01*
X-6169Y21814D01*
X-5573Y21416D01*
X-4871Y21277D01*
X-4169Y21416D01*
X-3573Y21814D01*
X-3175Y22410D01*
X-3036Y23112D01*
X-3175Y23814D01*
X-3573Y24410D01*
X-4126Y24779D01*
X-4178Y24857D01*
X-4274Y25338D01*
X-3430Y26182D01*
X7352D01*
X7703Y26252D01*
X8001Y26451D01*
X8973Y27424D01*
X12025D01*
Y30982D01*
X13975D01*
Y27424D01*
X18324D01*
Y27646D01*
X18433Y27714D01*
X19068Y27571D01*
X19226Y27309D01*
X19165Y27000D01*
X19254Y26552D01*
X18820Y26118D01*
X13900D01*
X13549Y26048D01*
X13251Y25849D01*
X12220Y24818D01*
X4306D01*
X4119Y25098D01*
X3524Y25496D01*
X2821Y25635D01*
X2119Y25496D01*
X1524Y25098D01*
X1229Y24657D01*
X807Y24457D01*
X601Y24428D01*
X0Y24547D01*
X-702Y24407D01*
X-1298Y24010D01*
X-1696Y23414D01*
X-1835Y22712D01*
X-1696Y22009D01*
X-1298Y21414D01*
X-918Y21160D01*
Y14552D01*
X-1298Y14298D01*
X-1696Y13702D01*
X-1782Y13268D01*
X-2292D01*
X-2328Y13449D01*
X-2726Y14044D01*
X-3321Y14442D01*
X-4023Y14582D01*
X-4726Y14442D01*
X-5321Y14044D01*
X-5719Y13449D01*
X-5825Y12916D01*
X-6100Y12851D01*
X-6345Y12863D01*
X-6702Y13398D01*
X-7298Y13796D01*
X-8000Y13935D01*
X-8702Y13796D01*
X-9298Y13398D01*
X-9696Y12802D01*
X-9835Y12100D01*
X-9696Y11398D01*
X-9298Y10802D01*
X-8702Y10404D01*
X-8000Y10265D01*
X-7552Y10354D01*
X-6249Y9051D01*
X-5951Y8852D01*
X-5600Y8782D01*
X-1963D01*
X-1889Y8282D01*
X-3259Y7867D01*
X-4731Y7080D01*
X-6021Y6021D01*
X-7080Y4731D01*
X-7867Y3259D01*
X-8351Y1661D01*
X-8515Y0D01*
X-8351Y-1661D01*
X-7867Y-3259D01*
X-7080Y-4731D01*
X-6021Y-6021D01*
X-4731Y-7080D01*
X-3259Y-7867D01*
X-1661Y-8351D01*
X0Y-8515D01*
X1661Y-8351D01*
X3259Y-7867D01*
X4731Y-7080D01*
X6021Y-6021D01*
X7080Y-4731D01*
X7867Y-3259D01*
X8351Y-1661D01*
X8515Y0D01*
X8351Y1661D01*
X7867Y3259D01*
X7080Y4731D01*
X6021Y6021D01*
X4731Y7080D01*
X3259Y7867D01*
X1889Y8282D01*
X1963Y8782D01*
X3728D01*
X4080Y8852D01*
X4377Y9051D01*
X5158Y9832D01*
X5607Y9743D01*
X6309Y9883D01*
X6904Y10281D01*
X7302Y10876D01*
X7442Y11578D01*
X7302Y12281D01*
X6904Y12876D01*
X6309Y13274D01*
X5607Y13413D01*
X4904Y13274D01*
X4309Y12876D01*
X3911Y12281D01*
X3771Y11578D01*
X3831Y11281D01*
X3455Y10905D01*
X3430Y10910D01*
X3069Y11270D01*
X3139Y11621D01*
Y19546D01*
X5375Y21782D01*
X13300D01*
X13651Y21852D01*
X13910Y22026D01*
X14053Y21957D01*
X14320Y21715D01*
X14209Y21161D01*
Y18376D01*
X19806D01*
Y21161D01*
X19676Y21818D01*
X19304Y22375D01*
X19187Y22453D01*
X19326Y22961D01*
X19619Y22977D01*
X19802Y22702D01*
X20398Y22304D01*
X21100Y22165D01*
X21802Y22304D01*
X22398Y22702D01*
X22796Y23298D01*
X22935Y24000D01*
X22796Y24702D01*
X22398Y25298D01*
X22298Y25365D01*
Y25702D01*
X22696Y26298D01*
X22835Y27000D01*
X22696Y27702D01*
X22298Y28298D01*
X21702Y28696D01*
X21626Y28711D01*
X21274Y29291D01*
X21335Y29600D01*
X21196Y30302D01*
X21075Y30482D01*
X21342Y30982D01*
X24220D01*
X26667Y28536D01*
Y22648D01*
X26287Y22393D01*
X25889Y21798D01*
X25749Y21096D01*
X25889Y20393D01*
X26287Y19798D01*
X26882Y19400D01*
X27584Y19261D01*
X28287Y19400D01*
X28882Y19798D01*
X29280Y20393D01*
X29362Y20807D01*
X29382Y20908D01*
X29877Y20859D01*
X29882Y20830D01*
Y19752D01*
X29502Y19498D01*
X29104Y18902D01*
X28965Y18200D01*
X29104Y17498D01*
X29502Y16902D01*
X30098Y16504D01*
X30800Y16365D01*
X31502Y16504D01*
X32098Y16902D01*
X32496Y17498D01*
X32635Y18200D01*
X32496Y18902D01*
X32098Y19498D01*
X31718Y19752D01*
Y24800D01*
X31648Y25151D01*
X31449Y25449D01*
X29918Y26980D01*
Y32020D01*
X30398Y32500D01*
X32300D01*
Y35924D01*
X32324D01*
Y40076D01*
D02*
G37*
G36*
X-15758Y22844D02*
Y18376D01*
X-14209D01*
Y21161D01*
X-14340Y21818D01*
X-14712Y22375D01*
X-15269Y22747D01*
X-15758Y22844D01*
D02*
G37*
G36*
X-18258D02*
X-18747Y22747D01*
X-19304Y22375D01*
X-19676Y21818D01*
X-19806Y21161D01*
Y18376D01*
X-18258D01*
Y22844D01*
D02*
G37*
G36*
X19806Y15876D02*
X18258D01*
Y11408D01*
X18747Y11506D01*
X19304Y11877D01*
X19676Y12434D01*
X19806Y13091D01*
Y15876D01*
D02*
G37*
G36*
X15758D02*
X14209D01*
Y13091D01*
X14340Y12434D01*
X14712Y11877D01*
X15269Y11506D01*
X15758Y11408D01*
Y15876D01*
D02*
G37*
G36*
X-14209D02*
X-15758D01*
Y11408D01*
X-15269Y11506D01*
X-14712Y11877D01*
X-14340Y12434D01*
X-14209Y13091D01*
Y15876D01*
D02*
G37*
G36*
X-18258D02*
X-19806D01*
Y13091D01*
X-19676Y12434D01*
X-19304Y11877D01*
X-18747Y11506D01*
X-18258Y11408D01*
Y15876D01*
D02*
G37*
G36*
X16250Y-4516D02*
Y-8750D01*
X20484D01*
X20456Y-8538D01*
X19892Y-7176D01*
X18994Y-6006D01*
X17824Y-5108D01*
X16462Y-4544D01*
X16250Y-4516D01*
D02*
G37*
G36*
X13750D02*
X13538Y-4544D01*
X12176Y-5108D01*
X11006Y-6006D01*
X10108Y-7176D01*
X9544Y-8538D01*
X9516Y-8750D01*
X13750D01*
Y-4516D01*
D02*
G37*
G36*
X20484Y-11250D02*
X16250D01*
Y-15484D01*
X16462Y-15456D01*
X17824Y-14892D01*
X18994Y-13994D01*
X19892Y-12824D01*
X20456Y-11462D01*
X20484Y-11250D01*
D02*
G37*
%LPD*%
G36*
X-26349Y28451D02*
X-26051Y28252D01*
X-25938Y28230D01*
X-25872Y27939D01*
X-25885Y27709D01*
X-26126Y27549D01*
X-29411Y24264D01*
X-29872Y24510D01*
X-29842Y24660D01*
X-29982Y25362D01*
X-30380Y25958D01*
X-30975Y26356D01*
X-31677Y26495D01*
X-31822Y26466D01*
X-32282Y26857D01*
Y32500D01*
X-30398D01*
X-26349Y28451D01*
D02*
G37*
D10*
X24600Y31900D02*
X27584Y28916D01*
Y21096D02*
Y28916D01*
X-19780Y-16146D02*
X-19680Y-16246D01*
X-28500Y3500D02*
X-17138Y-7863D01*
Y-15789D02*
Y-7863D01*
X-29700Y3003D02*
X-20079Y-6617D01*
Y-16445D02*
Y-6617D01*
X-28570Y4023D02*
Y12800D01*
X-28500Y3500D02*
Y3953D01*
X-28570Y4023D02*
X-28500Y3953D01*
X-33768Y-7600D02*
Y-4568D01*
Y-7600D02*
X-32968Y-8400D01*
X-33151Y-3951D02*
Y-1532D01*
X-33768Y-4568D02*
X-33151Y-3951D01*
X-26570Y5068D02*
X-26509Y5008D01*
X-23644D01*
X-28570Y12800D02*
X-26900Y14470D01*
Y18772D01*
X-24165Y21507D01*
X-29200Y14800D02*
Y16500D01*
X-23779Y31200D02*
X-19700D01*
X-18690Y32210D01*
X-8000Y12100D02*
X-5600Y9700D01*
X3728D01*
X5707Y11678D01*
X-29800Y3556D02*
X-29700Y3455D01*
Y3003D02*
Y3455D01*
X-29800Y3556D02*
Y14200D01*
X-32100Y1082D02*
Y2461D01*
X-33300Y-1383D02*
X-33151Y-1532D01*
X-32100Y1082D02*
X-31151Y133D01*
X-32400Y18138D02*
X-24938Y25600D01*
X-33300Y-1383D02*
Y1964D01*
X-32400Y2761D02*
X-32100Y2461D01*
X-31200Y3258D02*
Y17500D01*
X-31668Y-20332D02*
Y-3115D01*
X-33600Y2264D02*
X-33300Y1964D01*
X-31668Y-3115D02*
X-31151Y-2598D01*
X-32400Y2761D02*
Y18138D01*
X-31200Y3258D02*
X-30900Y2959D01*
X-31200Y17500D02*
X-24400Y24300D01*
X-30900Y1579D02*
Y2959D01*
X-33600Y2264D02*
Y18777D01*
X-31151Y-2598D02*
Y133D01*
X-33600Y18777D02*
X-25477Y26900D01*
X-18690Y32210D02*
X-8739D01*
X-7849Y33100D01*
X8000D01*
X8700Y33800D01*
X12549D01*
X21000D02*
X21306Y34106D01*
X-29800Y14200D02*
X-29200Y14800D01*
X-32968Y-20870D02*
Y-8400D01*
X-29451Y-11951D02*
Y130D01*
X-30900Y1579D02*
X-29451Y130D01*
X12600Y23900D02*
X13900Y25200D01*
X19200D01*
X21000Y27000D01*
X2221Y11621D02*
Y19927D01*
X4995Y22700D01*
X1500Y10900D02*
X2221Y11621D01*
X13300Y22700D02*
X14600Y24000D01*
X4995Y22700D02*
X13300D01*
X-7052Y-26800D02*
X25600D01*
X30974Y-21426D01*
Y-7096D01*
X-23972Y31293D02*
X-23779Y31100D01*
X23752Y38000D02*
X23850D01*
X21306Y35554D02*
X23752Y38000D01*
X21306Y34106D02*
Y35554D01*
X-24165Y31100D02*
X-23972Y31293D01*
X-25700Y29100D02*
X-20503D01*
X-30700Y34100D02*
Y34300D01*
Y34100D02*
X-25700Y29100D01*
X-33200Y26183D02*
X-31677Y24660D01*
X-33200Y26183D02*
Y37300D01*
X-32500Y38000D01*
X-30150D01*
X-23949D02*
X-23850D01*
X-25125Y36824D02*
X-23949Y38000D01*
X-25125Y36725D02*
Y36824D01*
X-26300Y35550D02*
X-25125Y36725D01*
X-26300Y34300D02*
Y35550D01*
X26300Y34500D02*
X28875Y37075D01*
X26300Y34300D02*
Y34500D01*
X30800Y18200D02*
Y24800D01*
X29000Y26600D02*
X30800Y24800D01*
X30700Y34100D02*
Y34300D01*
X29000Y32400D02*
X30700Y34100D01*
X29000Y26600D02*
Y32400D01*
X-32968Y-20870D02*
X-20824Y-33015D01*
X-20662Y-33176D02*
X-5086D01*
X-337Y22512D02*
X-279Y22455D01*
X-3747Y12370D02*
Y12647D01*
X-2276Y10900D02*
X1500D01*
X-3747Y12370D02*
X-2276Y10900D01*
X-23644Y5008D02*
X-2697Y-15940D01*
X-25000Y-19700D02*
X-10300D01*
X-26584Y-18116D02*
Y-12675D01*
Y-18116D02*
X-25000Y-19700D01*
X-25477Y26900D02*
X-18848D01*
X-31668Y-20332D02*
X-20124Y-31876D01*
X-29451Y-20318D02*
X-20269Y-29500D01*
X-29451Y-20318D02*
Y-11951D01*
X-3786Y-31876D02*
X7376D01*
X-5086Y-33176D02*
X-3786Y-31876D01*
X9752Y-29500D02*
X9850D01*
X7376Y-31876D02*
X9752Y-29500D01*
X-20269D02*
X-16150D01*
X-20124Y-31876D02*
X-5624D01*
X-3248Y-29500D01*
X-3150D01*
X-9850D02*
X-9752D01*
X-7052Y-26800D01*
X3150Y-29500D02*
X3158Y-29492D01*
X6508D01*
X16250Y-29600D02*
X20300D01*
X16150Y-29500D02*
X16250Y-29600D01*
X-12455Y25700D02*
X-5210D01*
X-13855Y24300D02*
X-12455Y25700D01*
X-24400Y24300D02*
X-13855D01*
X-24938Y25600D02*
X-14724D01*
X-13324Y27000D02*
X-5748D01*
X-14724Y25600D02*
X-13324Y27000D01*
X-18848Y26900D02*
X-16248Y29500D01*
X-16150D01*
X-3810Y27100D02*
X7352D01*
X-5210Y25700D02*
X-3810Y27100D01*
X9752Y29500D02*
X9850D01*
X7352Y27100D02*
X9752Y29500D01*
X-3248D02*
X-3150D01*
X-5748Y27000D02*
X-3248Y29500D01*
X-2697Y-15940D02*
X5840D01*
X6000Y-16100D01*
X-2822Y-13976D02*
X8492D01*
X-23806Y7008D02*
X-2822Y-13976D01*
X-9850Y29500D02*
X-9752D01*
X-7352Y31900D01*
X24600D01*
X6485Y29500D02*
X6526Y29459D01*
X3150Y29500D02*
X6485D01*
X16150D02*
X19500D01*
X16051D02*
X16150D01*
X2921Y23900D02*
X12600D01*
X14600Y24000D02*
X21000D01*
X0Y13247D02*
Y22512D01*
X-4871Y23112D02*
X-4767Y23008D01*
X-10300Y-19700D02*
X-10000Y-20000D01*
D14*
X26300Y34300D02*
D03*
X30700D02*
D03*
X-26300D02*
D03*
X-30700D02*
D03*
D15*
X23850Y38000D02*
D03*
X30150D02*
D03*
X-30150D02*
D03*
X-23850D02*
D03*
X-16150Y-29500D02*
D03*
X-9850D02*
D03*
X9850D02*
D03*
X16150D02*
D03*
X-3150D02*
D03*
X3150D02*
D03*
X9850Y29500D02*
D03*
X16150D02*
D03*
X-3150D02*
D03*
X3150D02*
D03*
X-16150D02*
D03*
X-9850D02*
D03*
D21*
X17008Y17126D02*
D03*
X-17008Y38228D02*
D03*
Y17126D02*
D03*
X17008Y38228D02*
D03*
D22*
X-10000Y-20000D02*
D03*
X15000Y-10000D02*
D03*
D23*
X-24280Y-16500D02*
D03*
X-17138Y-15789D02*
D03*
X-20079Y-16445D02*
D03*
X-26470Y5068D02*
D03*
X-33251Y-1532D02*
D03*
X21200Y34000D02*
D03*
X12349D02*
D03*
X-24165Y31200D02*
D03*
Y21507D02*
D03*
X-20503Y29100D02*
D03*
X-31677Y24660D02*
D03*
X-29000Y16500D02*
D03*
X30800Y18200D02*
D03*
X31100Y31000D02*
D03*
X-29000Y29000D02*
D03*
X-24000Y18500D02*
D03*
X26800Y5000D02*
D03*
X28000Y-28000D02*
D03*
X-29000Y-29000D02*
D03*
X-17000Y-23000D02*
D03*
X-8000Y23000D02*
D03*
X11000Y26000D02*
D03*
X-12500Y2000D02*
D03*
X-31668Y-6279D02*
D03*
X-29551Y-11951D02*
D03*
X30974Y-7096D02*
D03*
X6408Y-29492D02*
D03*
X20300Y-29600D02*
D03*
X6000Y-16100D02*
D03*
X8492Y-13976D02*
D03*
X27584Y21096D02*
D03*
X6400Y29500D02*
D03*
X19500Y29600D02*
D03*
X2821Y23800D02*
D03*
X0Y22712D02*
D03*
X-4871Y23112D02*
D03*
X21000Y27000D02*
D03*
X-8000Y12100D02*
D03*
X21100Y24000D02*
D03*
X-26584Y-12675D02*
D03*
X-23806Y7108D02*
D03*
X0Y13000D02*
D03*
X5607Y11578D02*
D03*
X-4023Y12747D02*
D03*
M02*
