M48
;Layer_Color=9474304
;FILE_FORMAT=2:5
INCH,LZ
;TYPE=PLATED
T1F00S00C0.01200
T3F00S00C0.05906
T4F00S00C0.15748
%
T01
X-0029Y-0029
X-002428Y-00165
X-0020079Y-0016445
X-0017138Y-0015789
X-0017Y-0023
X-0026584Y-0012675
X-0029551Y-0011951
X-0031668Y-0006279
X0006Y-00161
X0008492Y-0013976
X0006408Y-0029492
X00203Y-00296
X0028Y-0028
X0030974Y-0007096
X00268Y0005
X0027584Y0021096
X00308Y00182
X00311Y0031
X00212Y0034
X00195Y00296
X0021Y0027
X00211Y0024
X0011Y0026
X00064Y00295
X0002821Y00238
X0Y0022712
X-0004871Y0023112
X-0004023Y0012747
X0Y0013
X0005607Y0011578
X0012349Y0034
X-0008Y0023
Y00121
X-00125Y0002
X-0023806Y0007108
X-002647Y0005068
X-0033251Y-0001532
X-0029Y00165
X-0024Y00185
X-0024165Y0021507
Y00312
X-0020503Y00291
X-0029Y0029
X-0031677Y002466
T03
X-001Y-002
X0015Y-001
T04
X0Y0
M30
